<?xml version="1.0" encoding="utf-8"?>
<!-- Generator: Adobe Illustrator 16.0.0, SVG Export Plug-In . SVG Version: 6.00 Build 0)  -->
<!DOCTYPE svg PUBLIC "-//W3C//DTD SVG 1.1//EN" "http://www.w3.org/Graphics/SVG/1.1/DTD/svg11.dtd">
<svg version="1.1" id="图层_1" xmlns="http://www.w3.org/2000/svg" xmlns:xlink="http://www.w3.org/1999/xlink" x="0px" y="0px"
	 width="62px" height="72px" viewBox="0 0 62 72" enable-background="new 0 0 62 72" xml:space="preserve">
<path fill="#F5F8FA" d="M32.173,0.397l28,16.258c0.926,0.537,1.494,1.525,1.494,2.594v32.546c0,1.068-0.568,2.057-1.494,2.594
	l-28,16.258c-0.93,0.541-2.081,0.541-3.011,0l-28-16.258c-0.925-0.537-1.494-1.524-1.494-2.594V19.249
	c0-1.069,0.569-2.057,1.494-2.594l28-16.258C30.093-0.144,31.243-0.144,32.173,0.397z"/>
<path fill="#3D3E49" d="M30.668,16.271c-10.631,0-19.25,8.619-19.25,19.25c0,10.632,8.619,19.25,19.25,19.25
	c10.632,0,19.25-8.618,19.25-19.25C49.918,24.89,41.3,16.271,30.668,16.271z M30.668,39.896c-2.417,0-4.375-1.959-4.375-4.375
	s1.959-4.375,4.375-4.375c2.416,0,4.375,1.959,4.375,4.375S33.084,39.896,30.668,39.896z"/>
<g>
	<path fill="#D0D0D8" d="M15.763,37.04c0.106,0.397,0.515,0.634,0.912,0.526c0.396-0.105,0.633-0.515,0.526-0.911
		c-1.566-5.844,1.902-11.852,7.747-13.418c0.396-0.106,0.632-0.514,0.525-0.911c-0.105-0.398-0.514-0.634-0.912-0.527
		C17.924,23.578,13.985,30.401,15.763,37.04L15.763,37.04z"/>
	<path fill="#D0D0D8" d="M24.994,25.73c-4.313,1.156-6.871,5.588-5.716,9.9c0.106,0.396,0.515,0.633,0.912,0.526
		s0.633-0.515,0.526-0.911c-0.942-3.519,1.145-7.134,4.663-8.078c0.397-0.106,0.634-0.515,0.526-0.912
		C25.799,25.859,25.391,25.624,24.994,25.73L24.994,25.73z"/>
	<path fill="#D0D0D8" d="M25.657,29.175c-2.355,0.631-3.753,3.053-3.122,5.408c0.107,0.396,0.516,0.632,0.911,0.526
		c0.398-0.107,0.634-0.515,0.527-0.913c-0.418-1.561,0.508-3.165,2.069-3.584c0.396-0.105,0.633-0.514,0.526-0.912
		C26.462,29.305,26.054,29.069,25.657,29.175L25.657,29.175z"/>
</g>
<g>
	<path fill="#FFFFFF" d="M36.774,49.171c6.639-1.779,10.578-8.603,8.8-15.241c-0.106-0.398-0.515-0.634-0.912-0.526
		c-0.396,0.106-0.633,0.514-0.526,0.911c1.565,5.846-1.902,11.853-7.747,13.418c-0.396,0.106-0.633,0.516-0.526,0.912
		C35.969,49.042,36.377,49.277,36.774,49.171L36.774,49.171z"/>
	<path fill="#FFFFFF" d="M41.954,35.521c-0.106-0.396-0.515-0.633-0.912-0.526c-0.396,0.106-0.633,0.515-0.526,0.911
		c0.942,3.52-1.146,7.135-4.664,8.078c-0.396,0.105-0.632,0.515-0.525,0.911c0.106,0.397,0.515,0.633,0.912,0.526
		C40.55,44.268,43.109,39.834,41.954,35.521L41.954,35.521z"/>
	<path fill="#FFFFFF" d="M38.64,36.67c-0.107-0.396-0.516-0.633-0.912-0.526c-0.397,0.106-0.633,0.515-0.526,0.911
		c0.418,1.563-0.509,3.166-2.069,3.584c-0.397,0.107-0.633,0.515-0.526,0.913c0.106,0.396,0.515,0.632,0.911,0.526
		C37.872,41.447,39.271,39.025,38.64,36.67L38.64,36.67z"/>
</g>
</svg>
